<?xml version="1.0" encoding="utf-8"?>
<svg xmlns="http://www.w3.org/2000/svg" viewBox="-1.2127 6.2 39.9 40" width="39.9px" height="40px" xmlns:bx="https://boxy-svg.com"><defs><style type="text/css">
  .st0{fill:#FFFFFF;}
 </style><bx:export><bx:file format="svg"/></bx:export></defs><g transform="matrix(1, 0, 0, 1, -1.2126884460449219, 4.440892098500626e-16)"><path class="st0" d="M 6.8 42.8 C 6.8 44.7 5.3 46.2 3.4 46.2 C 1.5 46.2 0 44.7 0 42.8 C 0 40.9 1.5 39.4 3.4 39.4 C 3.4 39.4 3.4 39.4 3.4 39.4 C 5.3 39.4 6.8 40.9 6.8 42.8 C 6.8 42.8 6.8 42.8 6.8 42.8 M 15.1 42.8 C 15.1 44.7 13.6 46.2 11.7 46.2 C 9.8 46.2 8.3 44.7 8.3 42.8 C 8.3 40.9 9.8 39.4 11.7 39.4 C 13.6 39.4 15.1 40.9 15.1 42.8 M 23.4 42.8 C 23.4 44.7 21.9 46.2 20 46.2 C 18.1 46.2 16.6 44.7 16.6 42.8 C 16.6 40.9 18.1 39.4 20 39.4 C 21.8 39.4 23.4 40.9 23.4 42.8 C 23.4 42.7 23.4 42.8 23.4 42.8 M 31.7 42.8 C 31.7 44.7 30.2 46.2 28.3 46.2 C 26.4 46.2 24.9 44.7 24.9 42.8 C 24.9 40.9 26.4 39.4 28.3 39.4 C 30.1 39.4 31.7 40.9 31.7 42.8 M 39.9 42.8 C 39.9 44.7 38.4 46.2 36.5 46.2 C 34.6 46.2 33.1 44.7 33.1 42.8 C 33.1 40.9 34.6 39.4 36.5 39.4 C 38.4 39.4 39.9 40.9 39.9 42.8 M 6.8 34.5 C 6.8 36.4 5.3 37.9 3.4 37.9 C 1.5 37.9 0 36.4 0 34.5 C 0 32.6 1.5 31.1 3.4 31.1 C 3.4 31.1 3.4 31.1 3.4 31.1 C 5.3 31.1 6.8 32.6 6.8 34.5 M 15.1 34.5 C 15.1 36.4 13.6 37.9 11.7 37.9 C 9.8 37.9 8.3 36.4 8.3 34.5 C 8.3 32.6 9.8 31.1 11.7 31.1 C 11.7 31.1 11.7 31.1 11.7 31.1 C 13.6 31.1 15.1 32.6 15.1 34.5 M 23.4 34.5 C 23.4 36.4 21.9 37.9 20 37.9 C 18.1 37.9 16.6 36.4 16.6 34.5 C 16.6 32.6 18.1 31.1 20 31.1 C 20 31.1 20 31.1 20 31.1 C 21.8 31.1 23.4 32.6 23.4 34.5 M 31.7 34.5 C 31.7 36.4 30.2 37.9 28.3 37.9 C 26.4 37.9 24.9 36.4 24.9 34.5 C 24.9 32.6 26.4 31.1 28.3 31.1 C 28.3 31.1 28.3 31.1 28.3 31.1 C 30.1 31.1 31.6 32.6 31.7 34.5 M 39.9 34.5 C 39.9 36.4 38.4 37.9 36.5 37.9 C 34.6 37.9 33.1 36.4 33.1 34.5 C 33.1 32.6 34.6 31.1 36.5 31.1 C 36.5 31.1 36.5 31.1 36.5 31.1 C 38.4 31.1 39.9 32.6 39.9 34.5 M 23.4 26.2 C 23.4 28.1 21.9 29.6 20 29.6 C 18.1 29.6 16.6 28.1 16.6 26.2 C 16.6 24.3 18.1 22.8 20 22.8 C 21.8 22.8 23.4 24.3 23.4 26.2 C 23.4 26.2 23.4 26.2 23.4 26.2 M 31.7 26.2 C 31.7 28.1 30.2 29.6 28.3 29.6 C 26.4 29.6 24.9 28.1 24.9 26.2 C 24.9 24.3 26.4 22.8 28.3 22.8 C 30.1 22.8 31.7 24.3 31.7 26.2 M 39.9 26.2 C 39.9 28.1 38.4 29.6 36.5 29.6 C 34.6 29.6 33.1 28.1 33.1 26.2 C 33.1 24.3 34.6 22.8 36.5 22.8 C 38.4 22.8 39.9 24.3 39.9 26.2 M 23.4 17.9 C 23.4 19.8 21.9 21.3 20 21.3 C 18.1 21.3 16.6 19.8 16.6 17.9 C 16.6 16 18.1 14.5 20 14.5 C 21.8 14.5 23.4 16 23.4 17.9 M 31.7 17.9 C 31.7 19.8 30.2 21.3 28.3 21.3 C 26.4 21.3 24.9 19.8 24.9 17.9 C 24.9 16 26.4 14.5 28.3 14.5 C 30.1 14.5 31.7 16 31.7 17.9 M 39.9 17.9 C 39.9 19.8 38.4 21.3 36.5 21.3 C 34.6 21.3 33.1 19.8 33.1 17.9 C 33.1 16 34.6 14.5 36.5 14.5 C 38.4 14.5 39.9 16 39.9 17.9 M 39.9 9.6 C 39.9 11.5 38.4 13 36.5 13 C 34.6 13 33.1 11.5 33.1 9.6 C 33.1 7.7 34.6 6.2 36.5 6.2 C 38.4 6.2 39.9 7.7 39.9 9.6 C 39.9 9.6 39.9 9.6 39.9 9.6"/></g></svg>